<?xml version="1.0" encoding="utf-8"?>
<svg xmlns="http://www.w3.org/2000/svg" fill="none" viewBox="0 0 1024 512"><path fill="#fff" d="M0 0h1024v512H0z"/><path fill="url(#paint0_linear)" fill-opacity=".9" d="M600.589 172.138c48.457 44.553 77.604 106.684 59.188 148.766-18.118 42.16-83.798 64.271-143.915 57.354-60.306-6.806-115.049-42.639-130.761-98.193-15.712-55.554 7.906-130.749 53.395-154.992 45.788-24.165 113.745 2.701 162.093 47.065z"/><path stroke="#000" stroke-width="15" d="M512 256.5h49"/><path fill="#000" d="M568 256.5a7.5 7.5 0 11-15 0 7.5 7.5 0 0115 0z"/><circle cx="511.5" cy="256.5" r="7.5" fill="#000"/><path fill="#000" d="M515 199a7.5 7.5 0 11-15 0 7.5 7.5 0 0115 0zM475.5 238.5a7.5 7.5 0 11-15 0 7.5 7.5 0 0115 0z"/><path stroke="#000" stroke-width="15" d="M508 199h-39a1 1 0 00-1 1v39"/><path stroke="#000" stroke-width="20" d="M573 288H456c-11.046 0-20-8.954-20-20v-80c0-11.046 8.954-20 20-20h117c11.046 0 20 8.954 20 20v80c0 11.046-8.954 20-20 20z"/><path fill="#000" d="M370.536 353c-1.749 0-3.093-.469-4.032-1.408-.939-.939-1.408-2.283-1.408-4.032v-34.24c0-1.749.469-3.093 1.408-4.032.939-.939 2.283-1.408 4.032-1.408h12.928c4.992 0 9.28.917 12.864 2.752 3.627 1.792 6.4 4.373 8.32 7.744 1.92 3.371 2.88 7.381 2.88 12.032 0 4.693-.96 8.747-2.88 12.16-1.877 3.371-4.629 5.952-8.256 7.744-3.584 1.792-7.893 2.688-12.928 2.688h-12.928zm12.096-9.472c4.395 0 7.68-1.067 9.856-3.2 2.219-2.176 3.328-5.483 3.328-9.92s-1.109-7.723-3.328-9.856c-2.176-2.133-5.461-3.2-9.856-3.2h-5.76v26.176h5.76zm37.788 9.856c-1.792 0-3.221-.512-4.288-1.536-1.024-1.067-1.536-2.496-1.536-4.288v-34.24c0-1.749.512-3.136 1.536-4.16 1.067-1.067 2.496-1.6 4.288-1.6 1.835 0 3.285.533 4.352 1.6 1.067 1.024 1.6 2.411 1.6 4.16v34.24c0 1.792-.533 3.221-1.6 4.288-1.067 1.024-2.517 1.536-4.352 1.536zm57.314-7.616c.384.811.576 1.6.576 2.368 0 1.408-.576 2.603-1.728 3.584-1.11.981-2.39 1.472-3.84 1.472a4.93 4.93 0 01-2.688-.768c-.811-.512-1.451-1.28-1.92-2.304l-2.88-6.464h-20.736l-2.944 6.464c-.47 1.024-1.131 1.792-1.984 2.304a4.934 4.934 0 01-2.688.768c-1.451 0-2.774-.491-3.968-1.472-1.152-.981-1.728-2.176-1.728-3.584 0-.768.192-1.557.576-2.368l16.896-34.688c.554-1.152 1.365-2.027 2.432-2.624a7.17 7.17 0 013.648-.96c1.28 0 2.474.32 3.584.96a5.724 5.724 0 012.496 2.624l16.896 34.688zm-16.448-10.944l-6.4-14.272-6.4 14.272h12.8zM488.661 353c-1.749 0-3.093-.469-4.032-1.408-.939-.939-1.408-2.304-1.408-4.096V313.32c0-1.749.512-3.136 1.536-4.16 1.067-1.067 2.496-1.6 4.288-1.6 1.835 0 3.285.533 4.352 1.6 1.067 1.024 1.6 2.411 1.6 4.16v30.144h14.72c3.712 0 5.568 1.6 5.568 4.8 0 1.621-.469 2.816-1.408 3.584-.896.768-2.283 1.152-4.16 1.152h-21.056zm50 .576c-4.608 0-8.619-.939-12.032-2.816-3.371-1.92-5.973-4.608-7.808-8.064-1.835-3.499-2.752-7.595-2.752-12.288 0-4.693.917-8.768 2.752-12.224 1.835-3.499 4.437-6.187 7.808-8.064 3.413-1.877 7.424-2.816 12.032-2.816s8.597.939 11.968 2.816c3.413 1.877 6.016 4.565 7.808 8.064 1.835 3.456 2.752 7.531 2.752 12.224 0 4.693-.917 8.789-2.752 12.288-1.835 3.456-4.459 6.144-7.872 8.064-3.371 1.877-7.339 2.816-11.904 2.816zm0-9.024c3.413 0 6.08-1.195 8-3.584 1.92-2.432 2.88-5.952 2.88-10.56 0-4.608-.981-8.107-2.944-10.496-1.92-2.389-4.565-3.584-7.936-3.584-3.413 0-6.08 1.195-8 3.584-1.92 2.347-2.88 5.845-2.88 10.496 0 4.651.96 8.171 2.88 10.56 1.92 2.389 4.587 3.584 8 3.584zm50.938 9.024c-4.608 0-8.619-.939-12.032-2.816-3.371-1.92-5.974-4.608-7.808-8.064-1.835-3.499-2.752-7.595-2.752-12.288 0-4.693.917-8.768 2.752-12.224 1.834-3.499 4.437-6.187 7.808-8.064 3.413-1.877 7.424-2.816 12.032-2.816s8.597.939 11.968 2.816c3.413 1.877 6.016 4.565 7.808 8.064 1.834 3.456 2.752 7.531 2.752 12.224 0 4.693-.918 8.789-2.752 12.288-1.835 3.456-4.459 6.144-7.872 8.064-3.371 1.877-7.339 2.816-11.904 2.816zm0-9.024c3.413 0 6.08-1.195 8-3.584 1.92-2.432 2.88-5.952 2.88-10.56 0-4.608-.982-8.107-2.944-10.496-1.92-2.389-4.566-3.584-7.936-3.584-3.414 0-6.08 1.195-8 3.584-1.92 2.347-2.88 5.845-2.88 10.496 0 4.651.96 8.171 2.88 10.56 1.92 2.389 4.586 3.584 8 3.584zm64.825-17.024c1.408 0 2.517.405 3.328 1.216.853.768 1.28 1.813 1.28 3.136v11.136c0 2.133-.171 3.776-.512 4.928-.299 1.109-.875 1.984-1.728 2.624-.811.64-2.048 1.195-3.712 1.664-1.664.427-3.52.747-5.568.96a44.619 44.619 0 01-5.632.384c-4.907 0-9.173-.917-12.8-2.752-3.584-1.877-6.336-4.544-8.256-8-1.92-3.499-2.88-7.637-2.88-12.416 0-4.693.96-8.768 2.88-12.224 1.92-3.499 4.651-6.187 8.192-8.064 3.541-1.877 7.68-2.816 12.416-2.816 2.987 0 5.653.363 8 1.088a21.803 21.803 0 016.656 3.2c.725.512 1.237 1.067 1.536 1.664.341.597.512 1.365.512 2.304 0 1.323-.363 2.453-1.088 3.392-.725.896-1.6 1.344-2.624 1.344-.683 0-1.28-.085-1.792-.256-.469-.213-1.088-.555-1.856-1.024-1.579-.853-3.072-1.472-4.48-1.856-1.365-.384-2.859-.576-4.48-.576-4.053 0-7.083 1.131-9.088 3.392-1.963 2.261-2.944 5.739-2.944 10.432 0 4.821 1.024 8.405 3.072 10.752 2.091 2.304 5.269 3.456 9.536 3.456 2.048 0 4.075-.213 6.08-.64v-8.384h-4.608c-1.408 0-2.496-.341-3.264-1.024-.768-.725-1.152-1.728-1.152-3.008s.384-2.261 1.152-2.944c.768-.725 1.856-1.088 3.264-1.088h10.56z"/><defs><linearGradient id="paint0_linear" x1="438.149" x2="586.722" y1="125.213" y2="380.069" gradientUnits="userSpaceOnUse"><stop stop-color="#FF5C00"/><stop offset="1" stop-color="#FF5C00" stop-opacity=".65"/></linearGradient></defs></svg>
